<?xml version="1.0" encoding="utf-8"?>
<svg version="1.1" xmlns:xlink="http://www.w3.org/1999/xlink" width="30px" height="30px" xmlns="http://www.w3.org/2000/svg">
  <g>
    <path d="M 1 5.000000000000001  A 4 4 0 0 1 4.999999999999999 1 L 25 1  A 4 4 0 0 1 29 5 L 29 25  A 4 4 0 0 1 25 29 L 5 29  A 4 4 0 0 1 1 25 L 1 5  Z " fill-rule="nonzero" fill="#b07319" stroke="none" fill-opacity="0.7372549019607844" />
    <path d="M 0.5 5.000000000000001  A 4.5 4.5 0 0 1 4.999999999999999 0.5 L 25 0.5  A 4.5 4.5 0 0 1 29.5 5 L 29.5 25  A 4.5 4.5 0 0 1 25 29.5 L 5 29.5  A 4.5 4.5 0 0 1 0.5 25 L 0.5 5  Z " stroke-width="1" stroke="#b07319" fill="none" stroke-opacity="0.7372549019607844" />
  </g>
</svg>